<!DOCTYPE svg PUBLIC "-//W3C//DTD SVG 1.1//EN" "http://www.w3.org/Graphics/SVG/1.1/DTD/svg11.dtd">
<!-- Uploaded to: SVG Repo, www.svgrepo.com, Transformed by: SVG Repo Mixer Tools -->
<svg fill="#ffffff" height="800px" width="800px" version="1.1" id="Capa_1" xmlns="http://www.w3.org/2000/svg" xmlns:xlink="http://www.w3.org/1999/xlink" viewBox="0 0 297 297" xml:space="preserve" stroke="#ffffff">
<g id="SVGRepo_bgCarrier" stroke-width="0"/>
<g id="SVGRepo_tracerCarrier" stroke-linecap="round" stroke-linejoin="round"/>
<g id="SVGRepo_iconCarrier"> <path d="M259.098,57.008L204.923,2.833C203.107,1.019,200.647,0,198.082,0H44.743c-5.343,0-9.674,4.331-9.674,9.674v253.707 c0,5.343,4.331,9.675,9.674,9.675h46.195v14.27c0,3.567,1.964,6.846,5.108,8.529c3.147,1.686,6.964,1.498,9.932-0.48l18.577-12.385 l18.578,12.385c1.618,1.08,3.49,1.625,5.367,1.625c1.564,0,3.134-0.379,4.564-1.145c3.145-1.684,5.109-4.962,5.109-8.529v-14.27 h94.082c5.343,0,9.674-4.332,9.674-9.675V63.849C261.931,61.283,260.912,58.823,259.098,57.008z M207.756,33.03L228.9,54.175 h-21.145V33.03z M149.843,190.444c-1.545,1.682-2.446,3.855-2.543,6.137l-0.396,9.336l-9.335,0.396 c-2.281,0.098-4.454,0.996-6.136,2.541l-6.878,6.319l-6.877-6.319c-1.681-1.543-3.855-2.443-6.136-2.541l-9.336-0.396l-0.395-9.335 c-0.097-2.281-0.997-4.455-2.543-6.136l-6.318-6.878l6.318-6.876c1.545-1.682,2.446-3.855,2.543-6.137l0.396-9.336l9.335-0.396 c2.28-0.098,4.455-0.998,6.136-2.541l6.877-6.319l6.878,6.319c1.681,1.543,3.855,2.443,6.136,2.541l9.335,0.396l0.396,9.336 c0.097,2.28,0.998,4.454,2.543,6.135l6.318,6.878L149.843,190.444z M129.923,263.314c-1.625-1.084-3.496-1.625-5.367-1.625 c-1.87,0-3.74,0.541-5.365,1.625l-8.904,5.934v-40.909l7.725,7.098c1.851,1.699,4.197,2.55,6.545,2.55 c2.349,0,4.695-0.851,6.546-2.55l7.725-7.098v40.909L129.923,263.314z M158.175,253.707v-29.038 c4.264-0.889,7.495-4.568,7.686-9.053l0.621-14.684l9.941-10.818c3.401-3.701,3.401-9.391,0-13.091l-9.941-10.82l-0.621-14.683 c-0.213-5.02-4.234-9.042-9.256-9.256l-14.683-0.623l-10.82-9.941c-3.702-3.399-9.389-3.399-13.091,0l-10.82,9.941l-14.683,0.623 c-5.021,0.214-9.043,4.235-9.256,9.257l-0.621,14.683l-9.941,10.818c-3.401,3.701-3.401,9.391,0,13.091l9.94,10.819l0.621,14.683 c0.19,4.485,3.422,8.164,7.687,9.053v29.039h-36.52V19.349h133.989v44.5c0,5.343,4.332,9.675,9.675,9.675h44.5v180.184H158.175z"/> </g>
</svg>