<svg xmlns="http://www.w3.org/2000/svg" xmlns:xlink="http://www.w3.org/1999/xlink" viewBox="0,0,256,256" width="32px" height="32px"><g fill="#9397ad" fill-rule="nonzero" stroke="none" stroke-width="1" stroke-linecap="butt" stroke-linejoin="miter" stroke-miterlimit="10" stroke-dasharray="" stroke-dashoffset="0" font-family="none" font-weight="none" font-size="none" text-anchor="none" style="mix-blend-mode: normal"><g transform="scale(8,8)"><path d="M16,4c-6.61719,0 -12,5.38281 -12,12c0,6.61719 5.38281,12 12,12c6.61719,0 12,-5.38281 12,-12c0,-6.61719 -5.38281,-12 -12,-12zM16,6c5.53516,0 10,4.46484 10,10c0,5.53516 -4.46484,10 -10,10c-5.53516,0 -10,-4.46484 -10,-10c0,-5.53516 4.46484,-10 10,-10zM15,8v9h7v-2h-5v-7z"></path></g></g></svg>